# xmcd CD database file
#
# Track frame offsets:
#	150
#	23935
#	142984
#	235229
#
# Disc length: 4090 seconds
#
# Revision: 12
# Processed by: cddbd v1.5.2PL0 Copyright (c) Steve Scherf et al.
# Submitted via: CDex 1.70beta2
#
DISCID=2c0ff804
DTITLE=Pat Metheny - The Way Up
DYEAR=2005
DGENRE=Jazz
TTITLE0=Opening
TTITLE1=Part One
TTITLE2=Part T w o
TTITLE3=Part Three
EXTD=YEAR: 2005
EXTT0=
EXTT1=
EXTT2=
EXTT3=
PLAYORDER=
